<?xml version="1.0" standalone="no"?>
<?xml-stylesheet type="text/css" href="handson.css" ?> 
<svg xmlns="http://www.w3.org/2000/svg" width="900" height="500" viewBox="0 0 900 500" xmlns:xlink="http://www.w3.org/1999/xlink" >
<rect class="background" x="0" y="0" width="750" height="500"  />


<!-- draw background grid -->
<path class="thin" style="stroke-opacity:0.2" d="M0,0
h750v10h-750v10h750v10h-750v10
h750v10h-750v10h750v10h-750v10
h750v10h-750v10h750v10h-750v10
h750v10h-750v10h750v10h-750v10
h750v10h-750v10h750v10h-750v10
h750v10h-750v10h750v10h-750v10
h750v10h-750v10h750v10h-750v10
h750v10h-750v10h750v10h-750v10
h750v10h-750v10h750v10h-750v10
h750v10h-750v10h750v10h-750v10
h750v10h-750v10h750v10h-750v10
h750v10h-750v10h750v10h-750v10
h750v10h-750v10
h750v-500h-750v500
h10v-500h10v500h10v-500h10v500
h10v-500h10v500h10v-500h10v500
h10v-500h10v500h10v-500h10v500
h10v-500h10v500h10v-500h10v500
h10v-500h10v500h10v-500h10v500
h10v-500h10v500h10v-500h10v500
h10v-500h10v500h10v-500h10v500
h10v-500h10v500h10v-500h10v500
h10v-500h10v500h10v-500h10v500
h10v-500h10v500h10v-500h10v500
h10v-500h10v500h10v-500h10v500
h10v-500h10v500h10v-500h10v500
h10v-500h10v500h10v-500h10v500
h10v-500h10v500h10v-500h10v500
h10v-500h10v500h10v-500h10v500
h10v-500h10v500h10v-500h10v500
h10v-500h10v500h10v-500h10v500
h10v-500h10v500h10v-500h10v500
h10v-500h10v500" />
<path class="outline" style="stroke-opacity:0.2" d="M0,0
h750v50h-750v50h750v50h-750v50
h750v50h-750v50h750v50h-750v50
h750v50h-750v50
h750v-500h-750v500
h50v-500h50v500h50v-500h50v500
h50v-500h50v500h50v-500h50v500
h50v-500h50v500h50v-500h50v500
h50v-500h50v500h50
"/>
<text x="0" style="text-anchor:middle;font-size:10px">
<tspan x="50" y="10">50</tspan>
<tspan x="100" y="10">100</tspan>
<tspan x="150" y="10">150</tspan>
<tspan x="200" y="10">200</tspan>
<tspan x="250" y="10">250</tspan>
<tspan x="300" y="10">300</tspan>
<tspan x="350" y="10">350</tspan>
<tspan x="400" y="10">400</tspan>
<tspan x="450" y="10">450</tspan>
<tspan x="500" y="10">500</tspan>
<tspan x="550" y="10">550</tspan>
<tspan x="600" y="10">600</tspan>
<tspan x="650" y="10">650</tspan>
<tspan x="700" y="10">700</tspan>
</text>
<text style="text-anchor:start;font-size:10px">
<tspan x="730" y="53">50</tspan>
<tspan x="730" y="103">100</tspan>
<tspan x="730" y="153">150</tspan>
<tspan x="730" y="203">200</tspan>
<tspan x="730" y="253">250</tspan>
<tspan x="730" y="303">300</tspan>
<tspan x="730" y="353">350</tspan>
<tspan x="730" y="403">400</tspan>
<tspan x="730" y="453">450</tspan>

</text>
<!-- end draw grid -->
<!--
<circle cx="10" cy="40" r="2" stroke="none" fill="red" />
<circle cx="10" cy="20" r="2" stroke="none" fill="red" />
<circle cx="40" cy="20" r="2" stroke="none" fill="red" />
<circle cx="40" cy="40" r="2" stroke="none" fill="red" />
<circle cx="70" cy="60" r="2" stroke="none" fill="blue" />
<circle cx="70" cy="40" r="2" stroke="none" fill="blue" />
<circle cx="100" cy="20" r="2" stroke="none" fill="green" />
<circle cx="100" cy="40" r="2" stroke="none" fill="green" />

<path d = "M10,40 C10,20 40,20 40,40 S70,60,70,40 S100,20,100,40" stroke="black" fill="none" />
<path d = "M10,100 C40,60 70,140 100,100 S160,140,190,100 S250,140,280,100" stroke="black" fill="none" />

<circle cx="10" cy="100" r="2" stroke="none" fill="purple" />
<circle cx="40" cy="60" r="2" stroke="none" fill="purple" />
<circle cx="70" cy="140" r="2" stroke="none" fill="purple" />
<circle cx="100" cy="100" r="2" stroke="none" fill="purple" />

<circle cx="160" cy="140" r="2" stroke="none" fill="red" />
<circle cx="190" cy="100" r="2" stroke="none" fill="red" />
<circle cx="250" cy="140" r="2" stroke="none" fill="green" />
<circle cx="280" cy="100" r="2" stroke="none" fill="green" />
-->
<rect width="900" height="500" style="fill:green" /> 
<rect width="900" height="250" style="fill:blue" /> 
<g transform="translate(450,250)"> 
 <circle cx="-50" cy="0" r="15" style="fill:gray; stroke:none"/> 
 <circle cx="50" cy="0" r="15" style="fill:gray; stroke:none"/> 
 <g transform="translate(0,-10)"> 
 <path d="M-80 0 v -20 l 40 -5 l 10 -30 h 110 v 55 z M -30 -25 l 7 -20 h 20 v 20 z" 
 style="fill:red; stroke:none; fill-rule:evenodd"/> 
 </g> 
 </g> 
		 
		 
</svg>
