<?xml version="1.0" standalone="no"?>
<?xml-stylesheet type="text/css"  ?> 
<svg xmlns="http://www.w3.org/2000/svg" width="750" height="500" viewBox="0 0 750 500" xmlns:xlink="http://www.w3.org/1999/xlink" >
<!--

-->
<!-- Gradients for later use -->
<linearGradient id="skyGradient" x1="0%" y1="0%" x2="0%" y2="100%">
      <stop offset="0%" style="stop-color:rgb(0,0,255);stop-opacity:1" />
      <stop offset="100%" style="stop-color:rgb(255,255,255);stop-opacity:1" />
</linearGradient>

<linearGradient id="brickGradient" x1="0%" y1="0%" x2="0%" y2="100%">
      <stop offset="0%" style="stop-color:lightsalmon;stop-opacity:1" />
      <stop offset="100%" style="stop-color:indianred;stop-opacity:1" />
</linearGradient>


<defs>
	<filter id="smokeFilter" x="-20" y="-20" width="200" height="200">
        <feGaussianBlur in="SourceGraphic" stdDeviation="10" />
    </filter>
	<!-- House -->
	<g id="house" transform="translate(0,0)">	
		<circle cx="377.5" cy="100" r="20" stroke="none" fill="grey" filter="url(#smokeFilter)" />
		<rect x="370" y="120" width="15" height="30" stroke="black" fill="grey" />
		<rect x="300" y="160" width="75" height="90" stroke="black" fill="url(#brickGradient)"/>
		<polygon points= "280,160 395,160 365,120 310,120" stroke="black" fill="green"/>
	</g>
	<!-- road in first scene-->
	<g id="road">
		<rect width="1500" height="100" stroke="white" stroke-width="5" fill="grey"/>
		<rect x="0" y="45" width="100" height="10" stroke="white" fill="white"/>
		<rect x="150" y="45" width="100" height="10" stroke="white" fill="white"/>
		<rect x="300" y="45" width="100" height="10" stroke="white" fill="white"/>
		<rect x="450" y="45" width="100" height="10" stroke="white" fill="white"/>
		<rect x="600" y="45" width="100" height="10" stroke="white" fill="white"/>
		<rect x="750" y="45" width="100" height="10" stroke="white" fill="white"/>
		<rect x="900" y="45" width="100" height="10" stroke="white" fill="white"/>
		<rect x="1050" y="45" width="100" height="10" stroke="white" fill="white"/>
		<rect x="1200" y="45" width="100" height="10" stroke="white" fill="white"/>
		<rect x="1350" y="45" width="100" height="10" stroke="white" fill="white"/>
	</g>
	
	<!-- Jess in first person -->
	<g id="jess" transform="translate(-100,-267)">
		
		<path d="M 60,180 
				 q 2,-10 15,-25
				 q 13,15 15,25
				 l -30,0"
				 stroke="black" fill="black"
				 transform = "translate(60,180) rotate(-35) translate(-60,-180)" />
		
		<path d="M 115,160 
				 q 2,-10 15,-25
				 q 13,15 15,25
				 l -30,0"
				 stroke="black" fill="black"
				 transform = "translate(115,160) rotate(35) translate(-115,-160)" />
				 
		
				 
		<ellipse cx="100" cy="200" rx="50" ry="40" stroke="black" fill="black"/>
		
				 
		<path d="M 60,237 
				 q -15,15 -15,30
				 l 110,0
				 q 0,-15 -15,-30"
				 stroke="black" fill="black" />
				 
		<path d="M 60,225 
				 l 0,12
				 q 40,20 80,0
				 l 0,-12
				 q -40,20 -80,0"
				 stroke="black" fill="red" />
		<rect x="-60" y="256" rx="30" ry="30" width="320" height="125"
			stroke="black"
			fill="grey"/>
		<rect x="-60" y="336" rx="0" ry="0" width="320" height="100"
			stroke="none"
			fill="grey"/>
	
	</g>
	<!-- Pat in first person -->
	<g id="patRear" transform="translate(-300,-400)">
		<!-- Pats head-->
		<circle cx="260" cy="240" r="10" stroke="black" fill="pink"/>
		<circle cx="340" cy="240" r="10" stroke="black" fill="pink"/>		
		<rect x="260" y="200" rx="30" ry="30" width="80" height="150"
			stroke="black"
			fill="pink"/>
					
		<circle cx="343" cy="220" r="10" stroke="black" fill="darkorange"/>
		<circle cx="260" cy="220" r="10" stroke="black" fill="darkorange"/>
		<circle cx="266" cy="232" r="10" stroke="black" fill="darkorange"/>	
		<circle cx="280" cy="235" r="10" stroke="black" fill="darkorange"/>		
		<circle cx="294" cy="237" r="10" stroke="black" fill="darkorange"/>		
		<circle cx="308" cy="237" r="10" stroke="black" fill="darkorange"/>		
		<circle cx="322" cy="235" r="10" stroke="black" fill="darkorange"/>		
		<circle cx="336" cy="232" r="10" stroke="black" fill="darkorange"/>
		
		<path d="M 260,210 q 40,15 80,0
				 l 0,20
				 l -80,0
				 l 0,-20"
				 stroke="none" fill="darkorange"/>
				 
		<path d="M 260,210 q 40,15 80,0
				 M 260,210 l 0,-10
				 q 40,10 80,0
				 l 0,10"
				 stroke="black" fill="black"/>
		<path d="M 260,200 
				 q -12,-11 -5,-30
				 q 25,-40 45,-40
				 q 23,-5 45,40
				 q 7,20 -5,30
				 q -40,15 -80,0"
				 stroke="black" fill="blue"/>
		<!-- -->
		<!-- pats body -->
		<path d="M 150,400 q 15,-35 50,-50 
				 q 100,25 200,0
				 q 35,15 50,50"
				 stroke="black" fill="blue"/>
		
		<path d="M 240,330 
				 q 5,-15 20,-15
				 q 40,10 80,0
				 q 15,0 20,15
				 q -60,10 -120,0"
				 stroke="black"
				 fill="white"/>
		<path d="M 200,350 q 15,-15 40,-20
				 q 60,10 120,0
				 q 25,5 40,20
				 q -100,25 -200,0"
				 stroke="black"
				 fill="blue"/>	
		<rect x="140" y="390" rx="30" ry="30" width="320" height="125"
			stroke="black"
			fill="grey"/>
		<rect x="140" y="470" rx="0" ry="0" width="320" height="100"
			stroke="none"
			fill="grey"/>
	</g>
	<!-- Road in first person -->
	<g id="roadFP">
	
		<path d="M 50,300 L 250,50 L 500,50 L 700,300 Z " stroke="black" fill="grey"/>
		
		<rect x="362.5" y="50" width="25" height="10" stroke="black" fill= "white">
			<animate id="Road1" attributeName="height" from="10" to="100" begin="0s; Road2.end" dur="0.5s" fill="freeze"/> 
			<animate id="Road2" attributeName="y" from="50" to="320" begin="Road1.end" dur="1s" /> 
			<animate id="Road3" attributeName="height" from="100" to="120" begin="Road1.end" dur="1s" />  	
		</rect>
		
		<path d="M 0,0 L 750,0 L 750,50 L 0,50 Z " stroke="none" fill="url(#skyGradient)"/>
		<path d="M 0,50 L 250,50 L 50,300 L 0,300  L 0,50  " stroke="none" fill="green"/>
		<path d="M 500,50 L 750,50 L 750,300 L 700,300, L 500,50 Z " stroke="none" fill="green"/>	
	</g>
	<!-- Wheel for use in the van -->
	<g id="wheel">
		<circle cx="0" cy="0" r="15" stroke="black" fill="grey"	/>
		<circle cx="0" cy="0" r="7.5" stroke="black" fill="black"/>
		<circle cx="-5.625" cy="0" r="1.875" stroke="black" fill="white"/>
		<circle cx="0" cy="-5.625" r="1.875" stroke="black" fill="white"/>
		<circle cx="5.625" cy="0" r="1.875" stroke="black" fill="white"/>
		<circle cx="0" cy="5.625" r="1.875" stroke="black" fill="white"/>
		<animateTransform
			id="moveVanForward"
			attributeType="XML"
			attributeName="transform"
			type="rotate"
			from="0" to="-5728"
			begin="0s" dur="10s"
			repeatCount="0"
			fill="freeze"/>
			
			
	</g>
	<!-- Van in scene 1 -->
	<g id="van">
		<circle cx="85" cy="-60" r="3" stroke="black" fill="pink"/>
		<rect x="85" y="-75" rx="5" ry="5" width="10" height="30" stroke="black" fill="pink"/>
		<circle cx="88" cy="-65" r="2" stroke="black" fill="white"/>
		<circle cx="87.5" cy="-65" r="0.3" stroke="black" fill="black"/>
		
		<rect x="85" y="-75" rx="5" ry="5" width="10" height="5" stroke="black" fill="blue"/>
		<path d="M 0,0 L 0,-50 L 50,-50 L 75,-100 L 170,-100 L 170,0 L 0,0 L 0,-50
				 M 60,-50 L 80,-90 L 100,-90 L 100,-10 L 60,-10 L 60,-50"		
				stroke="black" 
				fill="red" 
				fill-rule= "evenodd"/>
		<path d="M 60,-50 L 80,-90 L 100,-90 L 100,-10 L 60,-10 L 60,-50
				 M 65,-50 L 83,-86 L 95,-86 L 95,-50 L 65,-50" 
				stroke="black" 
				fill="red" 
				fill-rule= "evenodd"/>
				
		<rect x="-8" y="-24" rx="4" ry="4" width="12" height="20"
			stroke="black"
			fill="gray"/>
			
		<rect x="166" y="-24" rx="4" ry="4" width="12" height="20"
			stroke="black"
			fill="gray"/>
		
		<use x="135" y="0" xlink:href="#wheel"/>
		<use x="25" y="0" xlink:href="#wheel"/>
		<image x="103" y="-90" width="64.6" height="52.6"
			xlink:href="royal-mail-logo.jpg" />
			
		<animateTransform
			id="moveVanForward"
			attributeType="XML"
			attributeName="transform"
			type="translate"
			from="0,0" to="-1500,0"
			begin="0s" dur="10s"
			repeatCount="0"
			fill="freeze"/>
	</g>
	<!-- Kennys head for use by kennyFront in all scenes -->
	<g id="kennyHead">
		<!-- head -->
		<animateTransform
			id="rotateHeadDead"
			attributeType="XML"
			attributeName="transform"
			type="rotate"
			from="0" to="-10"
			begin="rightEyeStrokeDead.begin" dur="0.01s"
			repeatCount="0"
			fill="freeze"/>
		<animateTransform
			id="rotateHead"
			attributeType="XML"
			attributeName="transform"
			type="rotate"
			from="0" to="20"
			begin="enlargeSideKenny.end" dur="0.4s"
			repeatCount="0"
			fill="freeze"/>
		<animateTransform
			id="rotateHeadBack"
			attributeType="XML"
			attributeName="transform"
			type="rotate"
			from="20" to="0"
			begin="never" dur="0.4s"
			repeatCount="0"
			fill="freeze"/>
		<ellipse cx="0" cy="0" ry="72" rx="70" stroke="black" fill="darkorange"/>
		<ellipse cx="0" cy="0" ry="45" rx="50" stroke="black" fill="none"/>
		<path d="M -50,0 q 5,-40 50,-37 q 46,0 50,40 q -10,30 -50,30 q -42,0 -50,-35"
			stroke="black"
			fill="chocolate"/>
		<path d="M 0,-34 q -50,32.5 0,65 q 50,-32.5 0,-65"
			stroke="black"
			fill="bisque"/>
		<path d="M 0,31 q -5,10 -5,20"
			stroke="black"
			fill="none"/> 
		<path d="M 0,31 q 5,10 -1,19 q -4,10 0,10"
			stroke="black"
			fill="none"/> 
			
		<!-- Left eye -->
		<path d="M -12,-26 q 20,25 -8,40 q -12,-22 8,-39"
			stroke="black"
			fill="white">
			<!--Start blink animation here!!!!-->
			<set id="leftEyeStroke"
				attributeName="stroke-opacity" 
				begin="rotateHead.end" 
				to="0" />
			<set id="leftEyeFill"
				attributeName="fill-opacity" 
				begin="leftEyeStroke.begin" 
				to="0" />
				
			<set id="leftEyeStroke2"
				attributeName="stroke-opacity" 
				begin="leftEyeStroke.begin+0.5s" 
				to="1" />
			<set id="leftEyeFill2"
				attributeName="fill-opacity" 
				begin="leftEyeStroke.begin+0.5s" 
				to="1" />	
			<!-- Dead kenny animations-->
			<set id="leftEyeStrokeDead"
				attributeName="stroke-opacity" 
				begin="rightEyeStrokeDead.begin" 
				to="0" />
			<set id="leftEyeFillDead"
				attributeName="fill-opacity" 
				begin="rightEyeStrokeDead.begin" 
				to="0" />
			<!-- -->
		</path>	
		<circle cx="-11" cy="-6" r="3" stroke="black" fill="black">
			<set id="leftEyePupilStroke"
				attributeName="stroke-opacity" 
				begin="leftEyeStroke.begin" 
				to="0" />
			<set id="leftEyePupilFill"
				attributeName="fill-opacity" 
				begin="leftEyeStroke.begin" 
				to="0" />
				
			<set id="leftEyePupilStroke2"
				attributeName="stroke-opacity" 
				begin="leftEyeStroke.begin+0.5s" 
				to="1" />
			<set id="leftEyePupilFill2"
				attributeName="fill-opacity" 
				begin="leftEyeStroke.begin+0.5s" 
				to="1" />
			<!-- Dead kenny animations-->
			<set id="leftEyePupilStrokeDead"
				attributeName="stroke-opacity" 
				begin="rightEyeStrokeDead.begin" 
				to="0" />
			<set id="leftEyePupilFillDead"
				attributeName="fill-opacity" 
				begin="rightEyeStrokeDead.begin" 
				to="0" />
			<!-- -->
		</circle>
		
		<!--Right eye -->
		<path d="M 12,-26 q -20,20 8,40 q 12,-22 -8,-39"
			stroke="black"
			fill="white">
			<set id="rightEyeStroke"
				attributeName="stroke-opacity" 
				begin="leftEyeStroke.begin" 
				to="0" />
			<set id="rightEyeFill"
				attributeName="fill-opacity" 
				begin="leftEyeStroke.begin" 
				to="0" />
			<set id="rightEyeStroke2"
				attributeName="stroke-opacity" 
				begin="leftEyeStroke.begin+0.5s" 
				to="1" />
			<set id="rightEyeFill2"
				attributeName="fill-opacity" 
				begin="leftEyeStroke.begin+0.5s" 
				to="1" />
				
			<!-- Dead kenny Start animations-->
			<set id="rightEyeStrokeDead"
				attributeName="stroke-opacity" 
				begin="bounceVan.end+0.9s" 
				to="0" />
			<set id="rightEyeFillDead"
				attributeName="fill-opacity" 
				begin="rightEyeStrokeDead.begin" 
				to="0" />
			<!-- -->
		</path>
		<circle cx="11" cy="-6" r="3" stroke="black" fill="black">
			<set id="rightEyePupilStroke"
				attributeName="stroke-opacity" 
				begin="leftEyeStroke.begin" 
				to="0" />
			<set id="rightEyePupilFill"
				attributeName="fill-opacity" 
				begin="leftEyeStroke.begin" 
				to="0" />
			<set id="rightEyePupilStroke2"
				attributeName="stroke-opacity" 
				begin="leftEyeStroke.begin+0.5s" 
				to="1" />
			<set id="rightEyePupilFill2"
				attributeName="fill-opacity" 
				begin="leftEyeStroke.begin+0.5s" 
				to="1" />
		<!-- Dead kenny animations-->
		<set id="rightEyePupilStrokeDead"
				attributeName="stroke-opacity" 
				begin="rightEyeStrokeDead.begin" 
				to="0" />
			<set id="rightEyePupilFillDead"
				attributeName="fill-opacity" 
				begin="rightEyeStrokeDead.begin" 
				to="0" />
		<!-- -->
		
		</circle>
		<!-- closed eyes-->
		<path d="M -25,-2 q 8,-5 21,-4"
			stroke="black"
			stroke-opacity="0"
			fill="none">
			<set id="leftEyelidStroke"
				attributeName="stroke-opacity" 
				begin="leftEyeStroke.begin" 
				to="1" />
			<set id="leftEyelidStroke2"
				attributeName="stroke-opacity" 
				begin="leftEyeStroke.begin+0.5s" 
				to="0" />
		</path>	
		<path d="M -5,-11 q 2,5 0,10"
			stroke="black"
			stroke-opacity="0"
			fill="none">
			<set id="leftEyelidStrokeCorner"
				attributeName="stroke-opacity" 
				begin="leftEyeStroke.begin" 
				to="1" />
			<set id="leftEyelidStrokeCorner2"
				attributeName="stroke-opacity" 
				begin="leftEyeStroke.begin+0.5s" 
				to="0" />
			
		</path>	
		<path d="M 25,-2 q -8,-5 -21,-4"
			stroke="black"
			stroke-opacity="0"
			fill="none">
			<set id="rightEyelidStroke"
				attributeName="stroke-opacity" 
				begin="leftEyeStroke.begin" 
				to="1" />
			<set id="rightEyelidStroke2"
				attributeName="stroke-opacity" 
				begin="leftEyeStroke.begin+0.5s" 
				to="0" />
			
		</path>
		<path d="M 4.5,-11 q -2,5 0,10"
			stroke="black"
			stroke-opacity="0"
			fill="none">
			<set id="rightEyelidCorner"
				attributeName="stroke-opacity" 
				begin="leftEyeStroke.begin" 
				to="1" />
			<set id="rightEyelidCorner2"
				attributeName="stroke-opacity" 
				begin="leftEyeStroke.begin+0.5s" 
				to="0" />
			
		</path>
		<!-- Dead eyes -->
		<use x="0" y="0" xlink:href="#deadKennyParts"/>
		<animateTransform
			id="jolthead"
			attributeType="XML"
			attributeName="transform"
			type="rotate"
			from="-10" to="-20"
			begin="ratTugHead.begin" dur="0.25s"
			repeatCount="0"
			fill="none"/>
		<animateTransform
			id="jolthead2"
			attributeType="XML"
			attributeName="transform"
			type="rotate"
			from="-20" to="-10"
			begin="jolthead.end" dur="0.25s"
			repeatCount="0"
			fill="none"/>
		<animateTransform
			id="jolthead3"
			attributeType="XML"
			attributeName="transform"
			type="rotate"
			from="-10" to="-30"
			begin="ratTugHeadOff.begin" dur="0.15s"
			repeatCount="0"
			fill="freeze"
			additive="sum"/>
		<animateTransform
			id="moveHead"
			attributeType="XML"
			attributeName="transform"
			type="translate"
			from="0," to="0,-20"
			begin="ratTugHeadOff.begin" dur="0.15s"
			repeatCount="0"
			fill="freeze"
			additive="sum"/>
			
		
			
		
	</g>
	<!-- Parts to show when kenny is dead (Closed eyes, blood on head, blood pool, drip) -->
	<g id="deadKennyParts">
		<!-- Closed eyes -->
		<path d="M -4,-2 l -15,-7
				 M -4,-2 l -15,7
				 M -4,-2 l -14,0"
			stroke="black"
			stroke-width="1.2"
			stroke-opacity="0"
			transform="rotate(-10)"
			fill="none">
			<set 
				attributeName="stroke-opacity" 
				begin="rightEyeStrokeDead.begin" 
				to="1" />
		</path>
		<path d="M 4,-2 l 15,-7
				 M 4,-2 l 15,7
				 M 4,-2 l 14,0"
			stroke="black"
			stroke-width="1.2"
			stroke-opacity="0"
			transform="rotate(10)"
			fill="none">
			<set 
				attributeName="stroke-opacity" 
				begin="rightEyeStrokeDead.begin" 
				to="1" />
			</path>
		<!-- Blood drop -->	
		<ellipse cx="25" cy="-48" rx="3" ry="3" stroke="none" fill="red" fill-opacity="0">
			<animate id="bloodDrip"
					attributeName="cx"
					begin="swellBloodPool.begin+3s"
					values="25;15;-70"
					dur="1.5s"
					repeatCount="4"
					/>
			<set 
				attributeName="fill-opacity" 
				begin="rightEyeStrokeDead.begin" 
				to="1" />							
		</ellipse>
		<!-- Blood on head -->
		<path d="M 50,-50 
				 q 2,-5 5,-4
				 q 5,0 7,10
				 q 5,0 7,10
				 q 5,0 7,10
				 q 0,10 -8,10
				 q -2,5 -7,4
				 q -4,-5 -2,-10
				 l -6,-2
				 q -4,-5 -2,-10
				 l -8,-2
				 q -4,-5 -2,-10
				 l -14,-2
				 q -10,-2.5 0,-5
				 l 18,-1
				 Z
				 "
			stroke="black"
			stroke-width="1"
			stroke-opacity="0"
			fill="red"
			fill-opacity="0">
			
			<set 
				attributeName="stroke-opacity" 
				begin="rightEyeStrokeDead.begin" 
				to="1" />
			<set 
				attributeName="fill-opacity" 
				begin="rightEyeStrokeDead.begin" 
				to="1" />
			 </path>
	</g>
	
	<!-- Kenny from the side crossing the road (Scene 2) -->
	<g id="kennySide">
		
		<path d="M 50,90
				 l 0,20
				 l 50,0
				 l 0,-20
				 l -50,0"
				 fill="darkorange"
				 stroke="black"/>
		<path d="M 40,110
				 q -3,-2.5 0,-5
				 q 35,-5 70,0
				 q 3,2.5 0,5
				 l -70,0"
				 fill="chocolate"
				 stroke="black"/>
		<path d="M 40,10
				 q -10,30 -10,80
				 q 45,10 90,0
				 q 0,-50 -10,-80
				 l -70,0"
			fill="darkorange"
			stroke="black"
			/>
		
			
		<path d="M 0,-55
			l 50,-20
			q 25,-10 50,0
			q 25,15 25,50
			q -5,40 -25,50
			q -25,10 -50,0
			l -50,-20
			l 0,-60
			"
			fill="darkorange"
			stroke="black"/>
		<ellipse cx="0" cy="-25" rx="5" ry="30" stroke="black" fill="chocolate"/>
		<path d="M 50,75
				 l 5,-30"
				 stroke="black"
				 fill="none"/>
		<path d="M 70,75
				 l 0,-30"
				 stroke="black"
				 fill="none"/>
		<circle cx="60" cy="75" r="12" stroke="black" fill="chocolate"/>
		<animateMotion
              path="M 0,0 
					q -25,-50 -60,0 
					q -25,-50 -60,0 
					q -25,-50 -60,0 
					q -25,-50 -60,0 
					q -25,-50 -60,0 
					q -25,-50 -60,0 
					q -25,-50 -60,0"
              begin="moveSideKennyToScreen.begin" 
			  dur="1.4" 
			  repeatCount="never"/>
		<!-- Trigger kenny getting run over here-->	  
		<animateTransform
			id="moveSideKennyToScreen"
			attributeType="XML"
			attributeName="transform"
			type="translate"
			from="0,0" to="0,120"
			begin="moveViewbox.begin" dur="1.4"
			repeatCount="0"
			fill="freeze"
			additive="sum"/>
		<animateTransform
			id="enlargeSideKenny"
			attributeType="XML"
			attributeName="transform"
			type="scale"
			from="1 1" to="1.3 1.3"
			begin="moveSideKennyToScreen.begin" dur="1.4s"
			repeatCount="0"
			fill="freeze"
			additive="sum"/>
		<set id="kennyInvisble3"
			 attributeName="stroke-opacity" 
			 begin="enlargeSideKenny.end" 
			 to="0" />
		<set id="kennyInvisble4"
			 attributeName="fill-opacity" 
			 begin="enlargeSideKenny.end" 
			 to="0" />
	</g>
	<!-- Kenny from the front ( uses head which in turn uses dead parts) -->
	<g id="kennyFront">
		<!--Body-->
		<!-- pool of blood -->
		<ellipse cx="0" cy="30" rx="5" ry="5" stroke="none" fill="red" transform="translate(0,30),rotate(-10),translate(0,-30)">
			<animateMotion
			  id="bloodSplatter"
              path="M 0,0 q 230,-60 -80,-180"
              begin="ratTugHeadOff.end" 
			  dur="0.2s" 
			  repeatCount="never"
			  fill="freeze"/>
			 <animate 
				attributeName="ry" 
				begin="bloodSplatter.end" dur="4s"
				values="5;40" 
				fill="freeze" />
			 <animate 
				attributeName="rx" 
				begin="bloodSplatter.end" dur="4s"
				values="5;10" 
				fill="freeze" />
		</ellipse>
		<ellipse cx="0" cy="30" rx="5" ry="5" stroke="none" fill="red" transform="translate(0,30),rotate(-10),translate(0,-30)">
			<animateMotion
			  id="bloodSplatter2"
              path="M 0,0 q 230,60 -80,180"
              begin="ratTugHeadOff.end" 
			  dur="0.2s" 
			  repeatCount="never"
			  fill="freeze"/>
			 <animate 
				attributeName="ry" 
				begin="bloodSplatter2.end" dur="4s"
				values="5;65" 
				fill="freeze" />
			 <animate 
				attributeName="rx" 
				begin="bloodSplatter2.end" dur="4s"
				values="5;10" 
				fill="freeze" />
		</ellipse>
		
		<ellipse cx="-60" cy="0" rx="10" ry="35" 
			stroke="black" 
			fill="red" 
			transform="translate(-60,0), rotate(-10),translate(60,0)" 
			stroke-opacity="0"
			fill-opacity="0">
		<set 
			attributeName="stroke-opacity" 
			begin="rightEyeStrokeDead.begin" 
			to="1" />
		<set 
			attributeName="fill-opacity" 
			begin="rightEyeStrokeDead.begin" 
			to="1" />
		<animate  id="swellBloodPool"
				attributeName="rx"
				begin="rightEyeStrokeDead.begin"
				dur="4s"
				values="10;30"
				fill="freeze"/>
		<animate attributeName="ry"
				begin="swellBloodPool.begin"
				dur="4s"
				values="35;70"
				fill="freeze"/>
		</ellipse>
		<path d="M -50,50 q -20,20 -25,50 l 15,5 l 0,20 l 10,3 l 0,22 l 100,0 l 0,-22 l 10,-3 l 0,-20 l 15,-5 q  -5,-30  -25,-50 Z"
			stroke="black"
			fill="darkorange"/> 
		<use x="0" y="0" xlink:href="#kennyHead" transform="scale(1)"/>
		<circle cx="-70" cy="100" r="12" stroke="black" fill="chocolate"/>
		<circle cx="-60" cy="97" r="5" stroke="black" fill="chocolate"/>
		<circle cx="70" cy="100" r="12" stroke="black" fill="chocolate"/>
		<circle cx="60" cy="95" r="5" stroke="black" fill="chocolate"/>
		<path d="M 0,72 l 0,50"
			stroke="black"
			fill="none"/> 
		<path d="M -55,97 q 0,-7 5,-15"
			stroke="black"
			fill="none"/> 
		<path d="M 55,97 q 0,-7 -5,-15"
			stroke="black"
			fill="none"/>
		<animateTransform
			id="enlarge Kenny"
			attributeType="XML"
			attributeName="transform"
			type="scale"
			from="1 1" to="1.3 1.3"
			begin="enlargeSideKenny.end" dur="2s"
			repeatCount="0"
			additive="sum"/>
		<animateTransform
			id="moveKennyUnderCar"
			attributeType="XML"
			attributeName="transform"
			type="translate"
			from="0,0" to="0,280"
			begin="enlargeSideKenny.end" dur="2s"
			repeatCount="0"
			fill="freeze"
			additive="sum"/>
		<set id="kennyInvisble1"
			 attributeName="stroke-opacity" 
			 begin="moveViewbox.begin" 
			 to="0" />
		<set id="kennyInvisble2"
			 attributeName="fill-opacity" 
			 begin="moveViewbox.begin" 
			 to="0" />
		<set id="kennyInvisble5"
			 attributeName="stroke-opacity" 
			 begin="enlargeSideKenny.end" 
			 to="1" />
		<set id="kennyInvisble6"
			 attributeName="fill-opacity" 
			 begin="enlargeSideKenny.end" 
			 to="1" />
		
		<!-- Dead kenny animations-->
		<!-- -->	
	</g>

	<!-- Van from the first person, scene 2. Uses patRear and jess -->
	<g id="vanFP">
		<rect x="-750" y="-200" width="750" height="250" stroke="white" fill="maroon"/>
		<use x="-200" y="-120" xlink:href="#patRear" transform="scale(1)"/>
		<use x="-550" y="-120" xlink:href="#jess" transform="scale(1)"/>
		<animateMotion
			  id="bounceVan"
              path="M 0,0 
					L 0,-30 
					L 0,0"
              begin="enlargeSideKenny.end+2s" 
			  dur="0.3s" 
			  repeatCount="never"
			  fill="freeze"/>
	</g>
	
	<!-- The rat that pulls kennys head off during scene 3 -->
	<g id="rat">
		<path d="M 50,0 q 25,-15 50,0
				 q 20,5 25,10
				 q -37.5,10 -75,0
				 q -2.5,-2.5 0,-10"
			stroke="black"
			fill="grey"/>
		<circle cx="95" cy="5" r="5" stroke="black" fill="white"/>
		<circle cx="97" cy="6" r="1.5" stroke="black" fill="black"/>
		<path d="M 100,0 l -10,-1"
			stroke="black"
			fill="none"/>
		<circle cx="125" cy="10" r="3.5" stroke="black" fill="pink"/>
		<path
			transform="translate(50,0) rotate(-10) translate(-50,0)"
			d="M 50,0 q 15,0 15,13
				 q 5,-1 10,0
				 q 2,3.5 0,7
				 q -12.5,0 -25,-10
				 q -2.5,-2.5 0,-10"
			stroke="black"
			fill="grey"/>
		<path d="M 50,5 
				q -5,4 -10,0
				q -5,4 -10,5"
			stroke="pink"
			stroke-width="3"
			fill="none"/>
		<set
			attributeName="opacity" 
			begin="0s"
			to="0" 
		/>
		<set
			attributeName="opacity" 
			begin="bounceRat.begin"
			to="1" 
		/>
		<animateMotion
			  id="bounceRat"
              path="M 0,0 
					q 25,-40 50,-21.42
					q 25,-40 50,-21.42
					q 25,-40 50,-21.42
					q 25,-40 50,-21.42
					q 25,-40 50,-21.42
					q 25,-40 50,-21.42
					q 25,-40 50,-21.42"
              begin="bloodDrip.begin+2s" 
			  dur="1.5s" 
			  repeatCount="never"
			  fill="freeze"/>
		<animateMotion
			  id="ratTugHead"
              path="M 350,-149.94 l -15,0 l 15,0"
              begin="bounceRat.end+0.5s;bounceRat.end+1.5s;bounceRat.end+2.5s" 
			  dur="0.5s" 
			  repeatCount="never"
			  fill="freeze"/>
		<animateMotion
			  id="ratTugHeadOff"
              path="M 350,-149.94 l -25,0"
              begin="bounceRat.end+3.5s" 
			  dur="0.15s" 
			  repeatCount="never"
			  fill="freeze"/>
	</g>
</defs>
<!-- Set up all scenes but the viewbox will start at 0 0 750 500 -->
<use x="-750" y="-500" xlink:href="#roadFP"/>

<!-- Kenny from the side before he gets run over -->
<use x="-150" y="-600" xlink:href="#kennySide" transform="scale(0.7)"/>

<!-- Kenny from the front just as he gets run over -->
<use x="-420" y="-450" xlink:href="#kennyFront" transform="scale(0.8)"/>

<!-- Van from first person perspective -->
<use x="0" y="0" xlink:href="#vanFP" transform="scale(1)"/>

<!-- Sky -->
<path d="M -750,250 l 1500,0 l 0,-250 l -1500,0 Z" stroke="white" fill="url(#skyGradient)"/> 
<path d="M 0,-500 l 750,0 l 0,300 l -750,0 Z " stroke="none" fill="url(#skyGradient)"/> 

<!-- Grass in each scene-->
<path d="M 0,-200 l 750,0 l 0,200 l -750,0 Z" stroke="white" fill="green"/> 
<path d="M -750,250 l 1500,0 l 0,75 l -1500,0 Z" stroke="white" fill="green"/>
<path d="M -750,425 l 1500,0 l 0,75 l -1500,0 Z" stroke="white" fill="green"/>

<!-- Houses -->
<use x="250" y="20" xlink:href="#house"/>
<use x="0" y="30" xlink:href="#house"/>
<use x="-250" y="20" xlink:href="#house"/>
<use x="-500" y="30" xlink:href="#house"/>
<use x="-750" y="20" xlink:href="#house"/>
<use x="-1000" y="30" xlink:href="#house"/>
<use x="-1250" y="20" xlink:href="#house"/>
<use x="-1500" y="30" xlink:href="#house"/>
<use x="-750" y="325" xlink:href="#road"/>

<!-- Kenny waiting to cross the road -->
<use x="-1200" y="500" xlink:href="#kennyFront" transform="scale(0.5)"/>

<!-- Kenny dead on the ground -->
<use x="200" y="-250" xlink:href="#kennyFront" transform="translate(200,-250),rotate(-80),translate(-200,250),scale(1)"/>

<!-- Rat that pulls kennys head off -->
<use x="0" y="0" xlink:href="#rat" transform="scale(1)"/>

<!-- Van in scene 1 -->
<use x="450" y="300" xlink:href="#van" transform="scale(1.2)"/>
 

<animate id="scrollViewbox"
		attributeName="viewBox" 
		begin="1s" dur="4s"
        values="0 0 750 500; -750 0 750 500" 
		fill="freeze" />

<set id="moveViewbox"
		attributeName="viewBox" 
		begin="scrollViewbox.end+1s"
        to="-750 -500 750 500" 
	/>
<set id="moveViewboxDeadScene"
		attributeName="viewBox" 
		begin="bounceVan.end+1s"
        to="0 -500 750 500" 
	/>

</svg>
